<?xml version="1.0" encoding="utf-8"?>
<!-- Generator: Adobe Illustrator 21.1.0, SVG Export Plug-In . SVG Version: 6.00 Build 0)  -->
<svg version="1.1" id="Layer_1" xmlns="http://www.w3.org/2000/svg" xmlns:xlink="http://www.w3.org/1999/xlink" x="0px" y="0px"
	 viewBox="0 0 524.3 526.5" style="enable-background:new 0 0 524.3 526.5;" xml:space="preserve">
<style type="text/css">
	.st0{fill:#635B55;}
	.st1{fill:#605555;}
	.st2{fill:#D6C9C9;}
</style>
<g id="Text">
</g>
<g id="Layer_1_1_">
	<g>
		<polygon class="st0" points="236.7,166.8 238.3,100.2 203.1,132.6 201.6,199.1 		"/>
	</g>
	
		<rect x="206.9" y="303.1" transform="matrix(0.7354 -0.6776 0.6776 0.7354 -196.7454 243.6143)" class="st1" width="13.4" height="141.3"/>
	
		<rect x="200" y="209.4" transform="matrix(0.7354 -0.6776 0.6776 0.7354 -135.087 214.1819)" class="st1" width="13.4" height="141.3"/>
	
		<rect x="225.3" y="12.7" transform="matrix(0.7354 -0.6776 0.6776 0.7354 4.9046 179.2545)" class="st1" width="13.4" height="141.3"/>
	
		<rect x="310.9" y="105.6" transform="matrix(0.7354 -0.6776 0.6776 0.7354 -35.4228 261.8349)" class="st1" width="13.4" height="141.3"/>
	
		<rect x="271.6" y="146.6" transform="matrix(0.7354 -0.6776 0.6776 0.7354 -73.5956 246.0517)" class="st1" width="13.4" height="141.3"/>
	
		<rect x="108.5" y="98.7" transform="matrix(4.087169e-02 -0.9992 0.9992 4.087169e-02 66.5437 280.1498)" class="st2" width="141.3" height="13.4"/>
	
		<rect x="285.3" y="281.4" transform="matrix(4.087169e-02 -0.9992 0.9992 4.087169e-02 53.4866 631.9803)" class="st2" width="141.3" height="13.4"/>
	<path class="st0" d="M334.3,295.8l-69.1-1.5l-24.9,23c-11.6-7.8-22.4-16.4-32.6-25.9l26.8-24.6l1.5-66.6l-35.1,32.4l-0.9,40.4
		c-0.5,21.6-1.7,35.7-4.7,52.4c15.4-0.6,27.8-0.7,48.1-0.3l57.9,1.3L334.3,295.8z"/>
	<polygon class="st2" points="246.6,326.1 260.4,326.9 257,473.1 243.1,472.2 	"/>
</g>
</svg>
